<svg id="Camada_1" data-name="Camada 1" xmlns="http://www.w3.org/2000/svg" viewBox="0 0 1050.89 630.49"><defs><style>.cls-1{fill:#fff;}.cls-2{fill:#679f42;}.cls-2,.cls-4{fill-rule:evenodd;}.cls-3{fill:#7db342;}.cls-4{fill:#8cc34a;}</style></defs><title>Prancheta 1</title><path class="cls-1" d="M69,597.76H7.09V493.6H31v80.21H69Z"/><path class="cls-1" d="M144,517.69H101.18v15.73H135.9v24H101.18v16.44H144v24H77.23V493.89l66.74-.14Z"/><path class="cls-1" d="M209.73,492.9h25.36L199.66,597.76H177L143.41,492.9h25.22l20,64.33Z"/><path class="cls-1" d="M329.47,493.6h24.65l6.1,104.16h-24l-2.55-42.51-14.46,42.51H295.32L280,553.55l-2.83,44.21H253.09l6.66-104.16H284.4l22.82,65.19Z"/><path class="cls-1" d="M412.29,493.6a50.51,50.51,0,0,1,20.24,4.11,53.66,53.66,0,0,1,16.56,11.13,52.2,52.2,0,0,1,11.18,16.51,52.13,52.13,0,0,1,0,40.53,52.16,52.16,0,0,1-11.18,16.5,53.49,53.49,0,0,1-16.56,11.13,51.87,51.87,0,0,1-40.47,0,52.06,52.06,0,0,1-27.6-27.63,52.13,52.13,0,0,1,0-40.53,52,52,0,0,1,27.6-27.64A50.5,50.5,0,0,1,412.29,493.6Zm.08,80.07a27.2,27.2,0,0,0,10.91-2.2,28.27,28.27,0,0,0,15-15,28.27,28.27,0,0,0,0-21.82,28.27,28.27,0,0,0-15-15,28.18,28.18,0,0,0-21.83,0,28.27,28.27,0,0,0-14.95,15,28.27,28.27,0,0,0,0,21.82,28.27,28.27,0,0,0,14.95,15A27.22,27.22,0,0,0,412.37,573.67Z"/><path class="cls-1" d="M531.26,493.32v23.95h-20v80.49H487.33V517.27H467.49V493.32Z"/><path class="cls-1" d="M586.31,493.6a50.46,50.46,0,0,1,20.23,4.11,53.43,53.43,0,0,1,16.56,11.13,52,52,0,0,1,11.18,16.51,52,52,0,0,1,0,40.53,52,52,0,0,1-11.18,16.5,53.26,53.26,0,0,1-16.56,11.13,51.87,51.87,0,0,1-40.47,0,52,52,0,0,1-27.59-27.63,52,52,0,0,1,0-40.53,52,52,0,0,1,27.59-27.64A50.51,50.51,0,0,1,586.31,493.6Zm.07,80.07a27.2,27.2,0,0,0,10.91-2.2,28.18,28.18,0,0,0,15-15,28.15,28.15,0,0,0,0-21.82,28.18,28.18,0,0,0-15-15,28.15,28.15,0,0,0-21.82,0,28.18,28.18,0,0,0-15,15,28.15,28.15,0,0,0,0,21.82,28.18,28.18,0,0,0,15,15A27.17,27.17,0,0,0,586.38,573.67Z"/><path class="cls-1" d="M677.07,570.83c-1.23.19-2.46.34-3.68.43l-3.83.28v26.22H645.61V494.17h23.95a46.73,46.73,0,0,1,16.72,3.26A46,46,0,0,1,700,505.78,38.52,38.52,0,0,1,709.17,518a34,34,0,0,1,3.33,14.85A34.43,34.43,0,0,1,709,548.3,37.17,37.17,0,0,1,699,560.68l23,37.08h-28.2Zm-7.51-23.38a25,25,0,0,0,7.3-1.34,22,22,0,0,0,6.09-3.19,15.05,15.05,0,0,0,4.11-4.61,11.15,11.15,0,0,0,1.49-5.59,10.79,10.79,0,0,0-1.49-5.53,15.54,15.54,0,0,0-4.11-4.54,22,22,0,0,0-6.09-3.18,25,25,0,0,0-7.3-1.35Z"/><path class="cls-1" d="M763.37,599.74a37.23,37.23,0,0,1-9.85-1.34,33.45,33.45,0,0,1-9.28-4.18,34.88,34.88,0,0,1-11.91-12.83,35.66,35.66,0,0,1-4.25-17.22H752a10.38,10.38,0,0,0,1.84,6.59,13.35,13.35,0,0,0,3.26,3.19,10.64,10.64,0,0,0,5.53,1.84,12.47,12.47,0,0,0,5.81-1.13,9.56,9.56,0,0,0,3.19-2.12,11.8,11.8,0,0,0,1.84-2.48,6.86,6.86,0,0,0,.78-2.34,12.23,12.23,0,0,0,0-3.69,7.58,7.58,0,0,0-.78-2.41,9.7,9.7,0,0,0-1.84-2.48,12.37,12.37,0,0,0-3.19-2.19,31.62,31.62,0,0,0-3.33-1.28c-1.18-.37-2.43-.8-3.76-1.27q-3.54-1.14-7.36-2.55a41.19,41.19,0,0,1-7.66-3.83,30.17,30.17,0,0,1-8.36-7.79A30.94,30.94,0,0,1,732.12,519a29.32,29.32,0,0,1,3.19-11,31.16,31.16,0,0,1,6.38-8.36,30.28,30.28,0,0,1,18.56-8.08,33.37,33.37,0,0,1,10.91,1,31.86,31.86,0,0,1,9.74,4,31.08,31.08,0,0,1,7.54,6.66A29,29,0,0,1,793.3,512,30.31,30.31,0,0,1,795,522.09H771.16c0-2.17-.68-3.69-2-4.54a14.47,14.47,0,0,0-3.62-1.7,9.69,9.69,0,0,1-1.34-.21,7,7,0,0,0-2.41,0,8.38,8.38,0,0,0-2.76,1,5.51,5.51,0,0,0-2.27,2.48,6.36,6.36,0,0,0-.43,4.75,6.8,6.8,0,0,0,2.84,3.9,31.37,31.37,0,0,0,4.39,2q2.41.93,5.1,1.77c1.61.48,3.23,1,4.89,1.56s3.31,1.23,5,2a33.56,33.56,0,0,1,14.58,12.48,34,34,0,0,1,0,36.41A35.25,35.25,0,0,1,771,599,38.2,38.2,0,0,1,763.37,599.74Z"/><path class="cls-1" d="M877.58,597.62A53.07,53.07,0,0,1,858,593.86a49.87,49.87,0,0,1-17.22-11.41,52.6,52.6,0,0,1-11.27-16.93,51.91,51.91,0,0,1,11.27-56.75A50.73,50.73,0,0,1,858,497.29a52,52,0,0,1,39.18,0,51.14,51.14,0,0,1,17.22,11.48l-16.87,16.86a27.14,27.14,0,0,0-9.35-6.16,28.94,28.94,0,0,0-10.63-2.06A28.39,28.39,0,0,0,867,519.47a27.34,27.34,0,0,0-9.28,6.16,29.67,29.67,0,0,0-6.09,9.21,27.67,27.67,0,0,0-2.13,10.77,27.14,27.14,0,0,0,2.13,10.7,30,30,0,0,0,6.09,9.14,27.19,27.19,0,0,0,9.28,6.16,28.39,28.39,0,0,0,10.56,2.06,28.94,28.94,0,0,0,10.63-2.06,27,27,0,0,0,9.35-6.16l16.87,17a50.17,50.17,0,0,1-17.15,11.41A53,53,0,0,1,877.58,597.62Z"/><path class="cls-1" d="M966.36,493.6a50.51,50.51,0,0,1,20.24,4.11,53.5,53.5,0,0,1,16.55,11.13,51.87,51.87,0,0,1,11.18,16.51,52,52,0,0,1,0,40.53,51.83,51.83,0,0,1-11.18,16.5,53.33,53.33,0,0,1-16.55,11.13,51.89,51.89,0,0,1-40.48,0,52.09,52.09,0,0,1-27.59-27.63,52.13,52.13,0,0,1,0-40.53,52.06,52.06,0,0,1,27.59-27.64A50.55,50.55,0,0,1,966.36,493.6Zm.07,80.07a27.2,27.2,0,0,0,10.91-2.2,28.18,28.18,0,0,0,14.95-15,28.15,28.15,0,0,0,0-21.82,28.18,28.18,0,0,0-14.95-15,28.15,28.15,0,0,0-21.82,0,28.18,28.18,0,0,0-14.95,15,28.15,28.15,0,0,0,0,21.82,28.18,28.18,0,0,0,14.95,15A27.2,27.2,0,0,0,966.43,573.67Z"/><path class="cls-1" d="M1047.06,585.43a12.34,12.34,0,1,1-3.61-8.71A11.88,11.88,0,0,1,1047.06,585.43Z"/><path class="cls-2" d="M616.53,441.18H827.09L611.51,0,506.23,215.46Z"/><path class="cls-3" d="M395.94,441.18H616.53L506.23,215.46Z"/><path class="cls-4" d="M185.38,441.18H395.94L506.23,215.46,401,0Z"/></svg>