<svg id="Camada_1" data-name="Camada 1" xmlns="http://www.w3.org/2000/svg" viewBox="0 0 1039.98 358.97"><defs><style>.cls-1{fill:#fff;}.cls-2{fill:#679f42;}.cls-2,.cls-4{fill-rule:evenodd;}.cls-3{fill:#7db342;}.cls-4{fill:#8cc34a;}</style></defs><title>Prancheta 1</title><path class="cls-1" d="M61.93,357H0V252.83H24V333h38Z"/><path class="cls-1" d="M136.89,276.92H94.09v15.73h34.72v24H94.09V333h42.8V357H70.14V253.12l66.75-.15Z"/><path class="cls-1" d="M202.64,252.12H228L192.58,357H169.91L136.32,252.12h25.23l20,64.34Z"/><path class="cls-1" d="M322.38,252.83H347L353.13,357H329.18l-2.55-42.51L312.18,357H288.23l-15.3-44.22L270.09,357H246l6.66-104.16h24.66L300.13,318Z"/><path class="cls-1" d="M405.21,252.83a50.29,50.29,0,0,1,20.23,4.11A53.26,53.26,0,0,1,442,268.07a52,52,0,0,1,11.18,16.51,52,52,0,0,1,0,40.52A52,52,0,0,1,442,341.61a53.26,53.26,0,0,1-16.56,11.13,51.87,51.87,0,0,1-40.47,0,52,52,0,0,1-27.59-27.64,52,52,0,0,1,0-40.52A52,52,0,0,1,385,256.94,50.34,50.34,0,0,1,405.21,252.83Zm.07,80.07a27.2,27.2,0,0,0,10.91-2.2,28.18,28.18,0,0,0,14.95-14.95,28.15,28.15,0,0,0,0-21.82A28.18,28.18,0,0,0,416.19,279a28.15,28.15,0,0,0-21.82,0,28.18,28.18,0,0,0-14.95,14.95,28.15,28.15,0,0,0,0,21.82,28.18,28.18,0,0,0,14.95,14.95A27.2,27.2,0,0,0,405.28,332.9Z"/><path class="cls-1" d="M524.17,252.55V276.5h-20V357H480.24V276.5H460.4V252.55Z"/><path class="cls-1" d="M579.22,252.83a50.34,50.34,0,0,1,20.24,4.11A53.49,53.49,0,0,1,616,268.07a52.2,52.2,0,0,1,11.18,16.51,52.11,52.11,0,0,1,0,40.52A52.2,52.2,0,0,1,616,341.61a53.49,53.49,0,0,1-16.56,11.13,51.87,51.87,0,0,1-40.47,0,52,52,0,0,1-27.6-27.64,52.11,52.11,0,0,1,0-40.52A52,52,0,0,1,559,256.94,50.29,50.29,0,0,1,579.22,252.83Zm.07,80.07a27.25,27.25,0,0,0,10.92-2.2,28.27,28.27,0,0,0,14.95-14.95,28.27,28.27,0,0,0,0-21.82A28.27,28.27,0,0,0,590.21,279a28.18,28.18,0,0,0-21.83,0,28.27,28.27,0,0,0-15,14.95,28.27,28.27,0,0,0,0,21.82,28.27,28.27,0,0,0,15,14.95A27.2,27.2,0,0,0,579.29,332.9Z"/><path class="cls-1" d="M670,330.06c-1.22.19-2.45.34-3.68.43l-3.83.28V357h-24V253.4h24a46.85,46.85,0,0,1,16.72,3.25A46.12,46.12,0,0,1,692.87,265a38.53,38.53,0,0,1,9.21,12.18A33.84,33.84,0,0,1,705.41,292a34.45,34.45,0,0,1-3.54,15.5A37.39,37.39,0,0,1,692,319.91l23,37.08h-28.2Zm-7.51-23.38a24.89,24.89,0,0,0,7.3-1.34,22,22,0,0,0,6.09-3.19,15.22,15.22,0,0,0,4.12-4.61,11.17,11.17,0,0,0,1.48-5.6,10.78,10.78,0,0,0-1.48-5.52,15.72,15.72,0,0,0-4.12-4.54,22,22,0,0,0-6.09-3.19,24.89,24.89,0,0,0-7.3-1.34Z"/><path class="cls-1" d="M756.28,359a37.29,37.29,0,0,1-9.85-1.34,33.19,33.19,0,0,1-9.28-4.19,34.74,34.74,0,0,1-11.9-12.82A35.55,35.55,0,0,1,721,323.4h24a10.4,10.4,0,0,0,1.84,6.59,13.36,13.36,0,0,0,3.26,3.19,10.7,10.7,0,0,0,5.52,1.84,12.45,12.45,0,0,0,5.81-1.13,9.37,9.37,0,0,0,3.19-2.13,11.31,11.31,0,0,0,1.84-2.48,6.61,6.61,0,0,0,.78-2.33,11.42,11.42,0,0,0,0-3.69,7.34,7.34,0,0,0-.78-2.41,9.7,9.7,0,0,0-1.84-2.48,12,12,0,0,0-3.19-2.19,29.56,29.56,0,0,0-3.33-1.28c-1.18-.38-2.43-.8-3.75-1.27q-3.54-1.14-7.37-2.56a40.74,40.74,0,0,1-7.65-3.82,29.79,29.79,0,0,1-8.36-7.8A30.9,30.9,0,0,1,725,278.27a29.21,29.21,0,0,1,3.19-11,31.13,31.13,0,0,1,6.37-8.36,30.27,30.27,0,0,1,18.57-8.08,33.41,33.41,0,0,1,10.91,1,31.8,31.8,0,0,1,9.73,4,30.71,30.71,0,0,1,7.54,6.66,28.91,28.91,0,0,1,4.86,8.72,30.06,30.06,0,0,1,1.69,10.06H764.08q0-3.27-2.06-4.54a14.07,14.07,0,0,0-3.61-1.7,9.75,9.75,0,0,1-1.35-.21,6.94,6.94,0,0,0-2.41,0,8.38,8.38,0,0,0-2.76,1,5.56,5.56,0,0,0-2.27,2.48,6.31,6.31,0,0,0-.42,4.75A6.73,6.73,0,0,0,752,287a30.79,30.79,0,0,0,4.39,2.06q2.42.91,5.11,1.77,2.4.7,4.88,1.56t5,2a33.29,33.29,0,0,1,19.86,30.75A32.86,32.86,0,0,1,786,343.24a35.25,35.25,0,0,1-22.07,14.95A38.2,38.2,0,0,1,756.28,359Z"/><path class="cls-1" d="M870.5,356.85a53.36,53.36,0,0,1-19.63-3.76,50,50,0,0,1-17.22-11.41,52.68,52.68,0,0,1-11.26-16.93A51.94,51.94,0,0,1,833.65,268a50.68,50.68,0,0,1,17.29-11.48,52.79,52.79,0,0,1,19.63-3.83,52.19,52.19,0,0,1,19.55,3.83A50.8,50.8,0,0,1,907.34,268l-16.86,16.86a27.11,27.11,0,0,0-9.36-6.17,29,29,0,0,0-10.62-2.05,28.54,28.54,0,0,0-10.56,2.05,27.27,27.27,0,0,0-9.28,6.17,29.52,29.52,0,0,0-6.1,9.21,27.84,27.84,0,0,0-2.12,10.77,27.31,27.31,0,0,0,2.12,10.7,29.81,29.81,0,0,0,6.1,9.14,27.24,27.24,0,0,0,9.28,6.16,28.35,28.35,0,0,0,10.56,2.06,28.85,28.85,0,0,0,10.62-2.06,27.08,27.08,0,0,0,9.36-6.16l16.86,17a50.22,50.22,0,0,1-17.15,11.41A53.13,53.13,0,0,1,870.5,356.85Z"/><path class="cls-1" d="M959.28,252.83a50.29,50.29,0,0,1,20.23,4.11,53.49,53.49,0,0,1,16.56,11.13,52.2,52.2,0,0,1,11.18,16.51,52.11,52.11,0,0,1,0,40.52,52.2,52.2,0,0,1-11.18,16.51,53.49,53.49,0,0,1-16.56,11.13,51.87,51.87,0,0,1-40.47,0,52,52,0,0,1-27.6-27.64,52.11,52.11,0,0,1,0-40.52A52,52,0,0,1,939,256.94,50.34,50.34,0,0,1,959.28,252.83Zm.07,80.07a27.2,27.2,0,0,0,10.91-2.2,28.18,28.18,0,0,0,15-14.95,28.27,28.27,0,0,0,0-21.82,28.18,28.18,0,0,0-15-14.95,28.15,28.15,0,0,0-21.82,0,28.18,28.18,0,0,0-8.93,6,28.49,28.49,0,0,0-6,8.93,28.27,28.27,0,0,0,0,21.82,28.49,28.49,0,0,0,6,8.93,28.18,28.18,0,0,0,8.93,6A27.17,27.17,0,0,0,959.35,332.9Z"/><path class="cls-1" d="M1040,344.66a12.34,12.34,0,1,1-3.62-8.72A11.86,11.86,0,0,1,1040,344.66Z"/><path class="cls-2" d="M549.25,200.4H644.9L547,0,499.15,97.87Z"/><path class="cls-3" d="M449.05,200.4h100.2L499.15,97.87Z"/><path class="cls-4" d="M353.4,200.4h95.65l50.1-102.53L451.32,0Z"/></svg>